:SAMPLES-PER-SECOND 30
:FRAME-RANGE 1-2775
:FULLY-SPECIFIED
:DEGREES
174
root  -24.1284 38.3489 -12.6898 -167.281 81.7677 -165.099
RightUpLeg  6.67357 -27.6611 -2.98378
RightLeg  32.2073 -0.533265 -0.603512
RightFoot  -17.9413 0.994943 19.2147
RightToes  -5.28216e-011 1.2921e-014 -6.02303e-014
Spine  6.60578 4.13617 4.46915
Spine1  -1.96047 5.83307 -8.34885
HEad  -4.15404 35.6495 -5.20556
LeftShoulder1  1.23588 0.321239 -32.7715
LeftArm  14.4717 14.8787 -27.0444
LeftForeArm  0.787369 -9.6581 -15.5085
LeftHand  0.213808 0.688888 -5.43306
RightShoulder  11.1036 16.6726 48.1466
RightArm  13.4841 9.3471 15.29
RightForeArm  3.69845 8.62016 15.1936
RightHand  0.349932 3.64859 4.2365
LeftUpLeg  -16.4046 13.8737 -8.477
LeftLeg  16.6787 37.8585 4.58781
LeftFoot  -7.56458 -0.35764 12.1835
LeftToes  -2.158e-010 -1.26819e-010 -1.05346e-011
175
root  -23.3324 38.1737 -12.5266 -179.773 79.8196 -177.595
RightUpLeg  -0.469831 -24.3919 -5.15217
RightLeg  47.0389 1.19232 1.04999
RightFoot  -9.18696 -0.539457 24.9563
RightToes  -5.28216e-011 1.2921e-014 -6.02303e-014
Spine  7.05051 4.17224 3.53835
Spine1  -1.93022 6.03817 -10.3807
HEad  -3.75806 35.5903 -6.6323
LeftShoulder1  1.33712 0.0943917 -33.1585
LeftArm  11.1258 13.3669 -26.287
LeftForeArm  2.90503 -7.17119 -16.4846
LeftHand  0.196969 0.809507 -5.16506
RightShoulder  12.1522 18.7948 47.6402
RightArm  11.0053 11.3933 17.603
RightForeArm  5.12404 7.73584 15.3145
RightHand  0.422495 3.67422 5.14998
LeftUpLeg  -16.7587 16.3854 -10.8587
LeftLeg  20.1419 32.8784 6.61353
LeftFoot  -9.08763 -0.165816 11.1803
LeftToes  -2.158e-010 -1.26819e-010 -1.05346e-011
176
root  -22.5809 38.0995 -12.3702 174.706 77.5312 177.232
RightUpLeg  -8.13181 -19.6851 -6.18435
RightLeg  59.0262 2.08292 3.28645
RightFoot  3.65823 -2.0248 15.4856
RightToes  -5.28216e-011 1.2921e-014 -6.02303e-014
Spine  8.03731 4.36763 3.90925
Spine1  -1.84882 6.57525 -12.6297
HEad  -3.90075 35.4112 -9.18086
LeftShoulder1  1.37109 0.0210892 -33.3085
LeftArm  7.99094 11.1124 -26.6632
LeftForeArm  5.30399 -5.26668 -16.9483
LeftHand  0.199451 0.906186 -5.35779
RightShoulder  13.2418 21.2527 46.6915
RightArm  12.2986 13.2468 19.3723
RightForeArm  2.17651 9.69071 14.5044
RightHand  0.46893 3.60772 5.79042
LeftUpLeg  -15.7928 14.8106 -11.2829
LeftLeg  22.309 32.2606 7.64735
LeftFoot  -10.1682 -0.0451248 10.3683
LeftToes  -2.158e-010 -1.26819e-010 -1.05346e-011
177
root  -21.8804 37.9877 -12.1676 171.253 74.2901 173.986
RightUpLeg  -13.1271 -16.0805 -7.76125
RightLeg  65.4184 0.390387 0.321349
RightFoot  3.20266 -1.97937 15.5962
RightToes  -5.28216e-011 1.2921e-014 -6.02303e-014
Spine  8.77018 4.57218 3.10045
Spine1  -1.48758 6.77313 -13.6493
HEad  -3.72526 34.992 -11.0963
LeftShoulder1  1.40145 -0.0139789 -33.7751
LeftArm  7.29546 9.05183 -27.3459
LeftForeArm  6.43746 -5.46876 -16.7596
LeftHand  0.231351 0.655474 -5.82351
RightShoulder  14.3207 23.6175 46.0198
RightArm  11.1012 16.3122 20.1069
RightForeArm  2.95844 10.094 14.1327
RightHand  0.458481 3.67149 5.6115
LeftUpLeg  -15.1424 13.297 -11.9736
LeftLeg  24.5059 30.515 8.57672
LeftFoot  -11.2772 0.062819 9.19081
LeftToes  -2.158e-010 -1.26819e-010 -1.05346e-011
178
root  -21.068 38.1787 -12.0102 172.674 69.763 175.928
RightUpLeg  -15.7532 -13.622 -8.53243
RightLeg  66.1764 -1.75799 -5.01221
RightFoot  2.54728 -1.47629 12.2217
RightToes  -5.28216e-011 1.2921e-014 -6.02303e-014
Spine  8.89347 4.34524 3.57288
Spine1  -1.15825 6.61592 -13.8667
HEad  -2.23601 33.5787 -11.2981
LeftShoulder1  1.45425 -0.151174 -33.727
LeftArm  8.50843 7.53444 -28.835
LeftForeArm  6.58993 -6.83066 -16.2475
LeftHand  0.254158 0.266634 -5.84504
RightShoulder  15.2332 25.7562 45.2902
RightArm  8.47733 19.2552 20.3947
RightForeArm  3.27135 10.0003 13.9914
RightHand  0.452452 3.54898 5.61951
LeftUpLeg  -12.6381 11.642 -11.2399
LeftLeg  23.4033 27.9149 7.20852
LeftFoot  -11.5232 0.0829716 8.50966
LeftToes  -2.158e-010 -1.26819e-010 -1.05346e-011
179
root  -20.2561 38.4523 -11.8591 174.374 64.672 177.847
RightUpLeg  -17.2654 -10.6864 -9.12002
RightLeg  62.9037 -3.99691 -8.9882
RightFoot  1.05724 -0.920934 8.52963
RightToes  -5.28216e-011 1.2921e-014 -6.02303e-014
Spine  8.991 4.27729 4.17213
Spine1  -1.57947 6.57531 -13.8362
HEad  0.351318 30.8168 -10.2086
LeftShoulder1  1.49779 -0.303255 -33.2874
LeftArm  12.5077 6.43063 -30.6877
LeftForeArm  4.78124 -9.5238 -15.2001
LeftHand  0.277802 -0.197847 -5.79176
RightShoulder  15.5712 27.1803 44.0424
RightArm  5.52049 21.9133 20.4641
RightForeArm  2.28517 9.93919 13.8983
RightHand  0.507241 3.45554 6.40274
LeftUpLeg  -10.0209 9.42983 -10.122
LeftLeg  21.1771 25.4019 5.16185
LeftFoot  -11.2337 0.0599794 8.18869
LeftToes  -2.158e-010 -1.26819e-010 -1.05346e-011
